<svg width="56" height="56" viewBox="0 0 56 56" fill="none" xmlns="http://www.w3.org/2000/svg">
<rect x="4" y="4" width="48" height="48" rx="24" fill="#E4D3FF"/>
<rect x="4" y="4" width="48" height="48" rx="24" stroke="#101014" stroke-width="8"/>
<path d="M18.4201 28.7132C18.2839 28.4975 18.2158 28.3897 18.1777 28.2234C18.1491 28.0985 18.1491 27.9015 18.1777 27.7766C18.2158 27.6103 18.2839 27.5025 18.4201 27.2868C19.5455 25.5048 22.8954 21 28.0004 21C33.1054 21 36.4553 25.5048 37.5807 27.2868C37.7169 27.5025 37.785 27.6103 37.8231 27.7766C37.8517 27.9015 37.8517 28.0985 37.8231 28.2234C37.785 28.3897 37.7169 28.4975 37.5807 28.7132C36.4553 30.4952 33.1054 35 28.0004 35C22.8954 35 19.5455 30.4952 18.4201 28.7132Z" stroke="#AE7AFF" stroke-width="2" stroke-linecap="round" stroke-linejoin="round"/>
<path d="M28.0004 31C29.6573 31 31.0004 29.6569 31.0004 28C31.0004 26.3431 29.6573 25 28.0004 25C26.3435 25 25.0004 26.3431 25.0004 28C25.0004 29.6569 26.3435 31 28.0004 31Z" stroke="#AE7AFF" stroke-width="2" stroke-linecap="round" stroke-linejoin="round"/>
</svg>
