<svg width="56" height="56" viewBox="0 0 56 56" fill="none" xmlns="http://www.w3.org/2000/svg">
<rect x="4" y="4" width="48" height="48" rx="24" fill="#E4D3FF"/>
<rect x="4" y="4" width="48" height="48" rx="24" stroke="#101014" stroke-width="8"/>
<path fill-rule="evenodd" clip-rule="evenodd" d="M27.9932 21.1358C25.9938 18.7984 22.6597 18.1696 20.1547 20.31C17.6496 22.4504 17.297 26.029 19.2642 28.5604C20.8998 30.6651 25.8498 35.1041 27.4721 36.5408C27.6536 36.7016 27.7444 36.7819 27.8502 36.8135C27.9426 36.8411 28.0437 36.8411 28.1361 36.8135C28.2419 36.7819 28.3327 36.7016 28.5142 36.5408C30.1365 35.1041 35.0865 30.6651 36.7221 28.5604C38.6893 26.029 38.3797 22.4279 35.8316 20.31C33.2835 18.1922 29.9925 18.7984 27.9932 21.1358Z" stroke="#AE7AFF" stroke-width="2" stroke-linecap="round" stroke-linejoin="round"/>
</svg>
