<svg width="16" height="16" viewBox="0 0 16 16" fill="none" xmlns="http://www.w3.org/2000/svg">
<g clip-path="url(#clip0_2226_11696)">
<path d="M8.00033 0.333984C7.5583 0.333984 7.13438 0.509579 6.82181 0.82214C6.50925 1.1347 6.33366 1.55862 6.33366 2.00065C6.33366 2.44268 6.50925 2.8666 6.82181 3.17916C7.13437 3.49172 7.5583 3.66732 8.00033 3.66732C8.44235 3.66732 8.86628 3.49172 9.17884 3.17916C9.4914 2.8666 9.66699 2.44268 9.66699 2.00065C9.66699 1.55862 9.4914 1.1347 9.17884 0.82214C8.86628 0.509579 8.44235 0.333984 8.00033 0.333984Z" fill="#BFBFBF"/>
<path d="M8.00033 6.33398C7.5583 6.33398 7.13438 6.50958 6.82181 6.82214C6.50925 7.1347 6.33366 7.55862 6.33366 8.00065C6.33366 8.44268 6.50925 8.8666 6.82181 9.17916C7.13437 9.49172 7.5583 9.66732 8.00033 9.66732C8.44235 9.66732 8.86628 9.49172 9.17884 9.17916C9.4914 8.8666 9.66699 8.44268 9.66699 8.00065C9.66699 7.55862 9.4914 7.1347 9.17884 6.82214C8.86628 6.50958 8.44235 6.33398 8.00033 6.33398Z" fill="#BFBFBF"/>
<path d="M8.00033 12.334C7.5583 12.334 7.13438 12.5096 6.82181 12.8221C6.50925 13.1347 6.33366 13.5586 6.33366 14.0007C6.33366 14.4427 6.50925 14.8666 6.82181 15.1792C7.13437 15.4917 7.5583 15.6673 8.00033 15.6673C8.44235 15.6673 8.86628 15.4917 9.17884 15.1792C9.4914 14.8666 9.66699 14.4427 9.66699 14.0007C9.66699 13.5586 9.4914 13.1347 9.17884 12.8221C8.86628 12.5096 8.44235 12.334 8.00033 12.334Z" fill="#BFBFBF"/>
</g>
<defs>
<clipPath id="clip0_2226_11696">
<rect width="16" height="16" fill="white" transform="translate(16) rotate(90)"/>
</clipPath>
</defs>
</svg>
