<svg width="24" height="24" viewBox="0 0 24 24" fill="none" xmlns="http://www.w3.org/2000/svg">
<path d="M15.75 5.25H2.25C1.42157 5.25 0.75 5.92157 0.75 6.75V17.25C0.75 18.0784 1.42157 18.75 2.25 18.75H15.75C16.5784 18.75 17.25 18.0784 17.25 17.25V6.75C17.25 5.92157 16.5784 5.25 15.75 5.25Z" stroke="white" stroke-linecap="round" stroke-linejoin="round"/>
<path d="M17.25 14.2501L22.237 16.1201C22.3504 16.1626 22.4725 16.1769 22.5927 16.162C22.7129 16.147 22.8276 16.1032 22.9272 16.0342C23.0267 15.9652 23.1081 15.8731 23.1643 15.7658C23.2205 15.6585 23.2499 15.5392 23.25 15.4181V8.58205C23.2498 8.46101 23.2204 8.34181 23.1641 8.23466C23.1078 8.12751 23.0264 8.03559 22.9268 7.96679C22.8272 7.89798 22.7125 7.85433 22.5923 7.83957C22.4722 7.82481 22.3503 7.83939 22.237 7.88205L17.25 9.75205V14.2501Z" stroke="white" stroke-linecap="round" stroke-linejoin="round"/>
<path d="M9 8.5V15.5" stroke="white" stroke-linecap="round" stroke-linejoin="round"/>
<path d="M12.5 12L5.5 12" stroke="white" stroke-linecap="round" stroke-linejoin="round"/>
</svg>
