<svg width="21" height="21" viewBox="0 0 21 21" fill="none" xmlns="http://www.w3.org/2000/svg">
<path d="M7.16683 0.916016H15.1585C15.3771 0.916844 15.5866 0.994958 15.7418 1.13352L17.7585 2.94852C17.9124 3.08821 17.9992 3.27676 18.0002 3.47352V15.166C18.0002 15.3649 17.9124 15.5557 17.7561 15.6963C17.5998 15.837 17.3878 15.916 17.1668 15.916H7.16683C6.94582 15.916 6.73385 15.837 6.57757 15.6963C6.42129 15.5557 6.3335 15.3649 6.3335 15.166V1.66602C6.3335 1.4671 6.42129 1.27634 6.57757 1.13569C6.73385 0.995033 6.94582 0.916016 7.16683 0.916016Z" stroke="#BFBFBF" stroke-width="1.5" stroke-linecap="round" stroke-linejoin="round"/>
<path d="M16.3333 19.2493H4.02564C3.75362 19.2493 3.49275 19.1713 3.3004 19.0324C3.10806 18.8935 3 18.7051 3 18.5086V5.91602" stroke="#BFBFBF" stroke-width="1.5" stroke-linecap="round" stroke-linejoin="round"/>
</svg>
