<svg width="32" height="33" viewBox="0 0 32 33" fill="none" xmlns="http://www.w3.org/2000/svg">
<path d="M21.733 21.6877H24.933C24.933 21.6877 30.6663 20.9397 30.6663 15.3104C30.667 14.4538 30.4947 13.606 30.1598 12.8176C29.8249 12.0292 29.3343 11.3166 28.7174 10.7223C28.1005 10.1281 27.37 9.66452 26.5697 9.35935C25.7693 9.05419 24.9156 8.91373 24.0597 8.94639C23.2153 7.15422 21.7979 5.69443 20.0314 4.79761C18.2649 3.90079 16.2499 3.61805 14.3048 3.99404C12.3597 4.37004 10.5953 5.38334 9.29026 6.8739C7.98524 8.36446 7.21399 10.2473 7.09834 12.2251C6.40253 12.0787 5.68284 12.0894 4.99169 12.2564C4.30053 12.4233 3.65531 12.7423 3.10302 13.1901C2.55072 13.6379 2.10526 14.2033 1.79906 14.845C1.49287 15.4868 1.33365 16.1887 1.33301 16.8997C1.33301 21.7597 6.43434 21.6837 6.43434 21.6837H10.2517" stroke="white" stroke-linecap="round" stroke-linejoin="round"/>
<path d="M16 14.3555V29.0221" stroke="white" stroke-linecap="round" stroke-linejoin="round"/>
<path d="M20 18.3555L16 14.3555L12 18.3555" stroke="white" stroke-linecap="round" stroke-linejoin="round"/>
</svg>
